<svg width="24" height="24" viewBox="0 0 24 24" fill="none" xmlns="http://www.w3.org/2000/svg">
<path d="M11.9991 7.19249C9.33898 7.19249 7.1921 9.33937 7.1921 11.9995C7.1921 14.6597 9.33898 16.8066 11.9991 16.8066C14.6593 16.8066 16.8062 14.6597 16.8062 11.9995C16.8062 9.33937 14.6593 7.19249 11.9991 7.19249ZM11.9991 15.1237C10.2788 15.1237 8.87492 13.7198 8.87492 11.9995C8.87492 10.2792 10.2788 8.87531 11.9991 8.87531C13.7194 8.87531 15.1234 10.2792 15.1234 11.9995C15.1234 13.7198 13.7194 15.1237 11.9991 15.1237ZM17.003 5.87531C16.3819 5.87531 15.8804 6.37687 15.8804 6.99796C15.8804 7.61906 16.3819 8.12062 17.003 8.12062C17.6241 8.12062 18.1257 7.6214 18.1257 6.99796C18.1259 6.85048 18.097 6.70441 18.0406 6.56812C17.9843 6.43183 17.9016 6.308 17.7973 6.20371C17.693 6.09943 17.5692 6.01674 17.4329 5.96039C17.2966 5.90403 17.1505 5.87512 17.003 5.87531ZM21.3694 11.9995C21.3694 10.7058 21.3812 9.42374 21.3085 8.13234C21.2359 6.63234 20.8937 5.30109 19.7968 4.20421C18.6976 3.10499 17.3687 2.76515 15.8687 2.69249C14.5749 2.61984 13.2929 2.63156 12.0015 2.63156C10.7077 2.63156 9.4257 2.61984 8.13429 2.69249C6.63429 2.76515 5.30304 3.10734 4.20617 4.20421C3.10695 5.30343 2.7671 6.63234 2.69445 8.13234C2.62179 9.42609 2.63351 10.7081 2.63351 11.9995C2.63351 13.2909 2.62179 14.5753 2.69445 15.8667C2.7671 17.3667 3.10929 18.698 4.20617 19.7948C5.30538 20.8941 6.63429 21.2339 8.13429 21.3066C9.42804 21.3792 10.7101 21.3675 12.0015 21.3675C13.2952 21.3675 14.5773 21.3792 15.8687 21.3066C17.3687 21.2339 18.6999 20.8917 19.7968 19.7948C20.896 18.6956 21.2359 17.3667 21.3085 15.8667C21.3835 14.5753 21.3694 13.2933 21.3694 11.9995ZM19.3069 17.5261C19.1359 17.9527 18.9296 18.2714 18.5991 18.5995C18.2687 18.93 17.9523 19.1362 17.5257 19.3073C16.2929 19.7972 13.3655 19.687 11.9991 19.687C10.6327 19.687 7.70304 19.7972 6.47023 19.3097C6.04367 19.1386 5.72492 18.9323 5.39679 18.6019C5.06632 18.2714 4.86007 17.955 4.68898 17.5284C4.20148 16.2933 4.31163 13.3659 4.31163 11.9995C4.31163 10.6331 4.20148 7.70343 4.68898 6.47062C4.86007 6.04406 5.06632 5.72531 5.39679 5.39718C5.72726 5.06906 6.04367 4.86046 6.47023 4.68937C7.70304 4.20187 10.6327 4.31203 11.9991 4.31203C13.3655 4.31203 16.2952 4.20187 17.528 4.68937C17.9546 4.86046 18.2734 5.06671 18.6015 5.39718C18.9319 5.72765 19.1382 6.04406 19.3093 6.47062C19.7968 7.70343 19.6866 10.6331 19.6866 11.9995C19.6866 13.3659 19.7968 16.2933 19.3069 17.5261Z" fill="#0052FE"/>
</svg>
