<svg width="24" height="24" viewBox="0 0 24 24" fill="none" xmlns="http://www.w3.org/2000/svg">
<path d="M4.98292 7.19631C6.19132 7.19631 7.17092 6.21671 7.17092 5.00831C7.17092 3.79991 6.19132 2.82031 4.98292 2.82031C3.77452 2.82031 2.79492 3.79991 2.79492 5.00831C2.79492 6.21671 3.77452 7.19631 4.98292 7.19631Z" fill="#0052FE"/>
<path d="M9.2377 8.85469V20.9937H13.0067V14.9907C13.0067 13.4067 13.3047 11.8727 15.2687 11.8727C17.2057 11.8727 17.2297 13.6837 17.2297 15.0907V20.9947H21.0007V14.3377C21.0007 11.0677 20.2967 8.55469 16.4747 8.55469C14.6397 8.55469 13.4097 9.56169 12.9067 10.5147H12.8557V8.85469H9.2377ZM3.0957 8.85469H6.8707V20.9937H3.0957V8.85469Z" fill="#0052FE"/>
</svg>
