<svg width="24" height="24" viewBox="0 0 24 24" fill="none" xmlns="http://www.w3.org/2000/svg">
<path d="M21.626 6.25718C21.4418 5.09674 20.3809 4.08265 19.2068 3.94812C14.4154 3.42599 9.58143 3.42615 4.79007 3.94859C3.62016 4.08265 2.55929 5.09656 2.37413 6.2614C1.79174 10.0663 1.79196 13.9377 2.37479 17.7425C2.5592 18.9029 3.62016 19.9169 4.79401 20.0513C7.18726 20.3123 9.59294 20.4431 12.0004 20.443C14.4078 20.4431 16.8135 20.3123 19.2068 20.0513L19.2106 20.0509C20.3806 19.917 21.4417 18.903 21.6267 17.7381C22.2091 13.9333 22.2088 10.0619 21.626 6.25718ZM15.4164 12.6237L10.9164 15.6237C10.8034 15.699 10.6721 15.7422 10.5366 15.7488C10.401 15.7553 10.2662 15.725 10.1465 15.6609C10.0268 15.5969 9.92677 15.5016 9.85701 15.3851C9.78725 15.2687 9.7504 15.1355 9.75038 14.9997V8.99974C9.75039 8.86399 9.78723 8.73078 9.857 8.61433C9.92676 8.49787 10.0268 8.40254 10.1465 8.33849C10.2662 8.27444 10.401 8.24407 10.5366 8.25063C10.6722 8.25719 10.8035 8.30044 10.9164 8.37574L15.4164 11.3757C15.5192 11.4442 15.6034 11.537 15.6616 11.6459C15.7199 11.7547 15.7504 11.8763 15.7504 11.9997C15.7504 12.1232 15.7199 12.2448 15.6616 12.3536C15.6034 12.4625 15.5192 12.5553 15.4164 12.6237H15.4164Z" fill="#0052FE"/>
</svg>
