<svg width="24" height="25" viewBox="0 0 24 25" fill="none" xmlns="http://www.w3.org/2000/svg">
<path d="M8.51669 5.86926L9.78537 9.89605L8.48331 10.1539C7.25914 6.46264 6.64706 4.34285 6.64706 3.79449C6.64706 3.33615 6.78802 3.10699 7.06995 3.10699C7.49285 3.10699 7.97509 4.02774 8.51669 5.86926ZM11.8442 14.3034L11.4769 15.3838C11.2024 15.04 10.9391 14.7658 10.6868 14.5612L11.0541 14.4937L11.4825 14.4078L11.8442 14.3034ZM15.0938 3.30341C15.0938 4.1055 14.504 6.23757 13.3243 9.69962C13.1982 9.61777 13.0164 9.57685 12.779 9.57685C12.6677 9.57685 12.3895 9.59731 11.9444 9.63824L13.2909 5.32908C13.8474 3.52849 14.3037 2.62819 14.6598 2.62819C14.8007 2.62819 14.9083 2.69981 14.9825 2.84303C15.0567 2.98626 15.0938 3.13972 15.0938 3.30341ZM15.973 12.6215C15.973 12.9161 15.7819 13.4031 15.3998 14.0824C15.0178 14.7617 14.5819 15.3879 14.0922 15.9608C13.6025 16.5337 13.2316 16.8202 12.9793 16.8202C12.8755 16.8202 12.7809 16.767 12.6955 16.6606C12.6102 16.5542 12.5676 16.4437 12.5676 16.3291C12.5676 16.1327 12.6863 15.7152 12.9237 15.0769C13.0201 14.8149 13.1388 14.5203 13.2798 14.1929C13.4208 13.8655 13.597 13.5013 13.8084 13.1003C14.0199 12.6992 14.248 12.3678 14.4928 12.1059C14.7377 11.844 14.9677 11.713 15.1828 11.713C15.3312 11.713 15.5 11.8235 15.6892 12.0445C15.8784 12.2655 15.973 12.4578 15.973 12.6215ZM17.7313 16.7342C17.7313 17.0698 17.6386 17.4954 17.4531 18.011C17.0154 19.1978 16.3347 20.1267 15.411 20.7978C14.4873 21.469 13.443 21.8045 12.2782 21.8045C10.5941 21.8045 9.177 21.1088 8.02703 19.7175C6.89931 18.3343 6.33545 16.5869 6.33545 14.4753C6.33545 14.1234 6.33916 13.8492 6.34658 13.6527C6.354 13.4563 6.39666 13.2026 6.47456 12.8916C6.55246 12.5806 6.66561 12.3514 6.81399 12.2041C7.22946 11.803 8.01404 11.4941 9.16773 11.2772C10.3214 11.0603 11.3249 10.9519 12.1781 10.9519C12.4526 10.9519 12.6343 10.9969 12.7234 11.0869C12.8124 11.1278 12.8569 11.271 12.8569 11.5166C12.8569 11.7949 12.7772 12.0404 12.6176 12.2532C12.4581 12.466 12.2523 12.6297 12 12.7443C11.7477 12.8588 11.4603 12.955 11.1375 13.0328C10.8148 13.1105 10.4902 13.1576 10.1638 13.174C9.83731 13.1903 9.52199 13.2067 9.21781 13.2231C8.91362 13.2394 8.65395 13.2394 8.43879 13.2231H8.18283C8.00477 13.2231 7.85639 13.3008 7.73768 13.4563C7.62639 13.6118 7.55591 13.8369 7.52623 14.1315C7.73397 14.3607 8.09009 14.5817 8.59459 14.7945C9.04716 14.9745 9.39216 15.1628 9.62957 15.3592C10.1044 15.7357 10.5069 16.2022 10.837 16.7588C11.1672 17.3153 11.3323 17.876 11.3323 18.4407C11.3323 18.6944 11.2636 19.0566 11.1264 19.5272C10.9891 19.9978 10.9205 20.3559 10.9205 20.6014L10.9539 20.7487C10.9836 20.8469 10.9984 20.9042 10.9984 20.9206C12.0148 20.8388 12.5564 19.9548 12.6232 18.2688C12.6826 18.2852 12.8347 18.2934 13.0795 18.2934C13.0647 18.3507 13.0572 18.4366 13.0572 18.5512C13.0572 18.985 13.2075 19.3512 13.5079 19.65C13.8084 19.9487 14.159 20.0981 14.5596 20.0981C15.168 20.0981 15.7856 19.7789 16.4126 19.1405C17.0395 18.5021 17.3529 17.8514 17.3529 17.1885C17.3529 16.9102 17.2305 16.636 16.9857 16.3659C16.5999 16.8897 16.3773 17.2007 16.318 17.299C15.7467 18.1501 15.2533 18.5757 14.8378 18.5757C14.7488 18.5757 14.6505 18.541 14.5429 18.4714C14.4353 18.4018 14.3816 18.3179 14.3816 18.2197C14.3816 17.9414 14.7061 17.3481 15.3553 16.4396C16.0045 15.5311 16.4367 15.0769 16.6518 15.0769C16.9709 15.0769 17.2305 15.259 17.4308 15.6232C17.6312 15.9874 17.7313 16.3577 17.7313 16.7342ZM19 16.8447C19 16.0181 18.8423 15.351 18.527 14.8436C18.2117 14.3362 17.7054 13.976 17.0079 13.7632C17.2157 13.1576 17.3196 12.732 17.3196 12.4865C17.3196 11.979 17.0933 11.4757 16.6407 10.9764C16.1881 10.4771 15.7356 10.2275 15.283 10.2275C15.0678 10.2275 14.8082 10.2889 14.504 10.4117C15.7133 6.63042 16.318 4.31011 16.318 3.45074C16.318 2.79597 16.1659 2.26193 15.8617 1.84862C15.5575 1.4353 15.1161 1.22864 14.5374 1.22864C13.5654 1.22864 12.3598 3.60624 10.9205 8.36145C10.876 8.50059 10.8463 8.59471 10.8315 8.64382C10.787 8.51286 10.6794 8.18753 10.5087 7.66781C10.3381 7.14809 10.1767 6.66316 10.0246 6.21301C9.87255 5.76286 9.67223 5.2411 9.42369 4.64772C9.17515 4.05434 8.93588 3.551 8.70588 3.13768C8.47589 2.72436 8.21436 2.37038 7.9213 2.07574C7.62825 1.78109 7.34446 1.63377 7.06995 1.63377C6.54319 1.63377 6.12772 1.83429 5.82353 2.23533C5.51934 2.63638 5.36725 3.13563 5.36725 3.7331C5.36725 4.61703 5.95708 6.86777 7.13673 10.4853C6.68415 10.6081 6.31134 10.7963 6.01828 11.0501C5.72523 11.3038 5.50821 11.623 5.36725 12.0077C5.22628 12.3923 5.12984 12.775 5.0779 13.1555C5.02597 13.5361 5 13.9883 5 14.5121C5 15.7398 5.17435 16.8856 5.52305 17.9496C5.87175 19.0136 6.36142 19.9344 6.99205 20.7119C7.62268 21.4894 8.40541 22.1033 9.34022 22.5534C10.275 23.0036 11.3063 23.2286 12.434 23.2286C13.2576 23.2286 14.0848 23.0568 14.9157 22.713C16.0212 22.2465 16.9783 21.4628 17.787 20.362C18.5957 19.2612 19 18.0888 19 16.8447Z" fill="#2997F9"/>
</svg>
