<svg width="24" height="25" viewBox="0 0 24 25" fill="none" xmlns="http://www.w3.org/2000/svg">
<path d="M11.9991 7.42113C9.33898 7.42113 7.1921 9.56801 7.1921 12.2282C7.1921 14.8883 9.33898 17.0352 11.9991 17.0352C14.6593 17.0352 16.8062 14.8883 16.8062 12.2282C16.8062 9.56801 14.6593 7.42113 11.9991 7.42113ZM11.9991 15.3524C10.2788 15.3524 8.87492 13.9485 8.87492 12.2282C8.87492 10.5079 10.2788 9.10394 11.9991 9.10394C13.7194 9.10394 15.1234 10.5079 15.1234 12.2282C15.1234 13.9485 13.7194 15.3524 11.9991 15.3524ZM17.003 6.10394C16.3819 6.10394 15.8804 6.60551 15.8804 7.2266C15.8804 7.84769 16.3819 8.34926 17.003 8.34926C17.6241 8.34926 18.1257 7.85004 18.1257 7.2266C18.1259 7.07912 18.097 6.93305 18.0406 6.79676C17.9843 6.66047 17.9016 6.53663 17.7973 6.43235C17.693 6.32806 17.5692 6.24538 17.4329 6.18902C17.2966 6.13267 17.1505 6.10376 17.003 6.10394ZM21.3694 12.2282C21.3694 10.9344 21.3812 9.65238 21.3085 8.36098C21.2359 6.86098 20.8937 5.52973 19.7968 4.43285C18.6976 3.33363 17.3687 2.99379 15.8687 2.92113C14.5749 2.84848 13.2929 2.86019 12.0015 2.86019C10.7077 2.86019 9.4257 2.84848 8.13429 2.92113C6.63429 2.99379 5.30304 3.33598 4.20617 4.43285C3.10695 5.53207 2.7671 6.86098 2.69445 8.36098C2.62179 9.65473 2.63351 10.9368 2.63351 12.2282C2.63351 13.5196 2.62179 14.8039 2.69445 16.0954C2.7671 17.5954 3.10929 18.9266 4.20617 20.0235C5.30538 21.1227 6.63429 21.4625 8.13429 21.5352C9.42804 21.6078 10.7101 21.5961 12.0015 21.5961C13.2952 21.5961 14.5773 21.6078 15.8687 21.5352C17.3687 21.4625 18.6999 21.1203 19.7968 20.0235C20.896 18.9243 21.2359 17.5954 21.3085 16.0954C21.3835 14.8039 21.3694 13.5219 21.3694 12.2282ZM19.3069 17.7547C19.1359 18.1813 18.9296 18.5 18.5991 18.8282C18.2687 19.1586 17.9523 19.3649 17.5257 19.536C16.2929 20.0258 13.3655 19.9157 11.9991 19.9157C10.6327 19.9157 7.70304 20.0258 6.47023 19.5383C6.04367 19.3672 5.72492 19.161 5.39679 18.8305C5.06632 18.5 4.86007 18.1836 4.68898 17.7571C4.20148 16.5219 4.31163 13.5946 4.31163 12.2282C4.31163 10.8618 4.20148 7.93207 4.68898 6.69926C4.86007 6.27269 5.06632 5.95394 5.39679 5.62582C5.72726 5.29769 6.04367 5.0891 6.47023 4.91801C7.70304 4.43051 10.6327 4.54066 11.9991 4.54066C13.3655 4.54066 16.2952 4.43051 17.528 4.91801C17.9546 5.0891 18.2734 5.29535 18.6015 5.62582C18.9319 5.95629 19.1382 6.27269 19.3093 6.69926C19.7968 7.93207 19.6866 10.8618 19.6866 12.2282C19.6866 13.5946 19.7968 16.5219 19.3069 17.7547Z" fill="#2997F9"/>
</svg>
