<svg width="24" height="25" viewBox="0 0 24 25" fill="none" xmlns="http://www.w3.org/2000/svg">
<path d="M4.98487 7.42495C6.19327 7.42495 7.17287 6.44535 7.17287 5.23695C7.17287 4.02855 6.19327 3.04895 4.98487 3.04895C3.77648 3.04895 2.79688 4.02855 2.79688 5.23695C2.79688 6.44535 3.77648 7.42495 4.98487 7.42495Z" fill="#2997F9"/>
<path d="M9.23575 9.08332V21.2223H13.0047V15.2193C13.0047 13.6353 13.3027 12.1013 15.2667 12.1013C17.2037 12.1013 17.2277 13.9123 17.2277 15.3193V21.2233H20.9988V14.5663C20.9988 11.2963 20.2948 8.78333 16.4728 8.78333C14.6378 8.78333 13.4078 9.79033 12.9047 10.7433H12.8537V9.08332H9.23575ZM3.09375 9.08332H6.86875V21.2223H3.09375V9.08332Z" fill="#2997F9"/>
</svg>
