<svg width="1110" height="289" viewBox="0 0 1110 289" fill="none" xmlns="http://www.w3.org/2000/svg">
<mask id="mask0_742_52569" style="mask-type:alpha" maskUnits="userSpaceOnUse" x="0" y="0" width="1110" height="289">
<rect y="0.109375" width="1110" height="288" rx="16" fill="#C4C4C4"/>
</mask>
<g mask="url(#mask0_742_52569)">
<rect y="0.109375" width="1110" height="288" rx="16" fill="#0052FE"/>
<path opacity="0.06" d="M730.285 206.826C612.469 122.188 450.104 221.093 321.427 154.112C254.477 119.261 240.899 87.8135 192.856 35.8259C162.041 2.48077 159.104 -3.32423 129.856 -27.1741C100.609 -51.024 47.5703 -78.6027 47.5703 -78.6027V-166.031H1432.28V416.397H1101.86C1101.86 416.397 925.371 419.147 840.856 346.969C789.453 303.069 790.595 250.153 730.285 206.826Z" fill="white"/>
<path opacity="0.06" d="M777.855 178.826C660.039 94.1882 497.674 214.95 368.998 147.969C302.047 113.118 266.998 -10.3884 247.498 -46.8884C236.813 -66.8884 220.498 -84.8884 193.998 -98.8884C167.498 -112.888 95.1406 -106.603 95.1406 -106.603V-194.031H1479.85V351.826H1170C1170 351.826 952.712 358.826 881.998 308.683C820.283 264.922 838.166 222.153 777.855 178.826Z" fill="white"/>
</g>
</svg>
