<svg width="218" height="223" viewBox="0 0 218 223" fill="none" xmlns="http://www.w3.org/2000/svg">
<path opacity="0.3" d="M163.591 166.816C193.194 136.262 193.194 86.7228 163.591 56.1682C133.988 25.6135 85.9926 25.6135 56.3898 56.1682C26.7869 86.7228 26.7869 136.262 56.3898 166.816C85.9926 197.371 133.988 197.371 163.591 166.816Z" fill="#C7E4FF"/>
<path opacity="0.5" d="M171.779 130.212V156.585C168.981 160.604 165.817 164.372 162.41 167.888V130.212C162.41 129.961 157.786 126.068 154.258 123.179V121.421L158.516 120.291C160.22 119.788 162.045 120.04 163.748 120.667C164.479 121.044 165.209 121.295 166.06 121.547V124.937C169.589 128.077 171.779 129.961 171.779 130.212Z" fill="#A6C4FF"/>
<path d="M2.16016 11.1406L24.4267 65.0175L40.6095 53.4635L50.1001 67.6548L51.8036 43.7933L71.3933 31.4857L2.16016 11.1406Z" fill="#FFB031"/>
<path d="M44.2624 50.9514L24.4293 65.0172L40.6121 53.4632L50.1028 67.6545L51.8062 43.7929L20.4141 24.5781L44.2624 50.9514Z" fill="#FF9433"/>
<path d="M51.3195 49.6955L20.4141 24.5781L51.8062 43.7929L51.3195 49.6955Z" fill="#FF7733"/>
<path d="M50.4599 74.3133C50.3382 73.3086 50.0949 72.1783 49.8515 71.1736L51.4333 70.7969C51.6766 71.8016 51.92 72.9319 52.1633 74.0621L50.4599 74.3133Z" fill="#00C8B7"/>
<path d="M32.0855 110.86C29.7736 110.734 27.5835 109.981 25.7584 108.725L26.6101 107.343C28.1919 108.474 30.1387 109.101 32.2072 109.227L32.0855 110.86ZM38.5343 109.604L37.8042 108.097C39.386 107.218 41.0894 105.962 42.5495 104.204L43.7663 105.334C42.1845 107.218 40.3594 108.599 38.5343 109.604ZM21.2564 103.576C20.4047 101.692 19.918 99.6824 19.918 97.673C19.918 97.5474 19.918 97.2962 19.918 97.1707V96.7939L21.4997 96.9195V97.1707C21.4997 97.2962 21.4997 97.4218 21.4997 97.5474C21.4997 99.3056 21.8648 101.064 22.7165 102.696L21.2564 103.576ZM82.3373 103.199V101.566C84.4058 101.566 86.4742 101.441 88.6644 101.315L88.7861 102.948C86.5959 103.073 84.4058 103.073 82.3373 103.199ZM76.0102 102.948L75.0368 102.822C73.09 102.696 71.3865 102.445 69.6831 102.069L69.9264 100.436C71.5082 100.687 73.2116 100.938 75.1584 101.064L76.1318 101.189L76.0102 102.948ZM95.1132 102.194L94.8698 100.562C96.9383 100.31 99.0068 99.9336 101.075 99.5568L101.319 101.189C99.2501 101.566 97.1816 101.943 95.1132 102.194ZM63.356 100.562C61.5308 99.9336 59.7057 99.0545 58.2456 98.1754C58.0023 98.0498 57.7589 97.9242 57.5156 97.673L58.3673 96.2915C58.6106 96.4171 58.854 96.5427 59.0973 96.6683C60.5574 97.5474 62.2609 98.3009 63.9643 98.9289L63.356 100.562ZM47.5382 99.9336L46.1998 99.1801C47.1732 97.2963 48.1466 95.4124 48.755 93.403L50.2151 93.9054C49.485 95.9148 48.6333 97.9242 47.5382 99.9336ZM107.646 99.6824L107.281 98.0498C109.227 97.5474 111.296 97.0451 113.364 96.4171L113.851 97.9242C111.661 98.6777 109.592 99.18 107.646 99.6824ZM119.935 96.166L119.448 94.6589C121.395 94.031 123.463 93.2775 125.41 92.5239L125.897 94.031C123.95 94.7845 121.882 95.4124 119.935 96.166ZM52.1619 93.9054C50.7018 92.7751 49.12 91.6448 47.4165 90.7657L46.9298 90.5145L47.6599 89.0075C47.9032 89.1331 48.0249 89.2587 48.2683 89.2587C50.0934 90.2634 51.6752 91.5192 53.1353 92.5239L52.1619 93.9054ZM23.8116 91.5192L22.7165 90.389C24.0549 89.0075 26.0017 87.8772 28.5569 87.1237L29.0436 88.6307C26.6101 89.3843 24.9066 90.2634 23.8116 91.5192ZM41.0894 88.3796C39.2643 88.0028 37.4392 87.7516 35.6141 87.7516H35.0057V86.119C37.1958 86.119 39.386 86.2446 41.4545 86.7469L41.0894 88.3796ZM51.9185 87.3749L50.3367 87.1237C50.7018 84.9887 50.9451 82.8537 50.9451 80.7188H52.5269C52.5269 82.9793 52.2835 85.1143 51.9185 87.3749Z" fill="#6EB5F6"/>
<path d="M131.983 91.6451L131.375 90.1381C132.348 89.7613 133.322 89.3846 134.295 89.0078L134.904 90.5149C133.93 90.8916 132.957 91.2684 131.983 91.6451Z" fill="#00C8B7"/>
<path d="M162.412 130.197L107.415 163.604L52.5391 130.197V130.072C52.5391 129.821 55.5809 127.183 60.2046 123.416L60.3263 123.29C75.5356 110.606 107.415 84.6094 107.415 84.6094C107.415 84.6094 139.415 110.606 154.503 123.416C159.248 127.309 162.412 129.946 162.412 130.197Z" fill="#7A4C08"/>
<path d="M130.05 56.8516H70.7942C65.6838 56.8516 61.5469 61.1215 61.5469 66.3962V158.954C61.5469 164.229 65.6838 168.498 70.7942 168.498H145.138C150.248 168.498 154.385 164.229 154.385 158.954V81.8434L130.05 56.8516Z" fill="white"/>
<path d="M130.051 72.2988C130.051 77.5734 134.188 81.8434 139.298 81.8434H154.264L130.051 56.8516V72.2988Z" fill="#E6E8E8"/>
<path d="M99.0073 76.5469L78.9141 96.8689H85.1682L87.0039 94.1752L97.4008 78.9067L99.0073 76.5469Z" fill="white"/>
<path d="M93.0847 76.5469L92.4424 77.4687L82.3587 91.9276L78.9141 96.8689L99.0073 76.5469H93.0847Z" fill="white"/>
<path d="M97.0154 93.3214L96.7558 92.9421C96.5393 92.6255 96.187 92.4375 95.8131 92.4375H91.0864C90.9114 92.4375 90.7756 92.5447 90.7109 92.6873L99.4479 96.8701L97.0154 93.3214Z" fill="white"/>
<path d="M90.7124 92.6875C90.6549 92.8145 90.6541 92.9695 90.7395 93.1047L91.7101 94.6293H91.7125L93.1401 96.8703H99.4501L90.7132 92.6875H90.7124Z" fill="white"/>
<path d="M87.8781 80.3075L86.3819 78.0401L85.3961 76.5469H79.2227L87.7814 80.8929C87.9492 80.7635 88.0123 80.5112 87.8789 80.3075H87.8781Z" fill="white"/>
<path d="M79.2227 76.5477L81.8564 80.4667C81.8676 80.4823 81.878 80.4955 81.8892 80.5112C82.1073 80.8055 82.4452 80.9795 82.8063 80.9795H87.5354C87.6321 80.9795 87.7143 80.9449 87.7822 80.8929L79.2235 76.5469L79.2227 76.5477Z" fill="white"/>
<path d="M98.9947 76.4062L78.6328 97H84.9705L86.8308 94.2703L97.3667 78.7976L98.9947 76.4062Z" fill="url(#paint0_linear_742_52576)"/>
<path d="M92.9929 76.4062L92.342 77.3404L82.1235 91.9926L78.6328 97L98.9947 76.4062H92.9929Z" fill="url(#paint1_linear_742_52576)"/>
<path d="M96.9825 93.4035L96.7194 93.0192C96.5 92.6983 96.143 92.5078 95.7642 92.5078H90.9742C90.7969 92.5078 90.6593 92.6164 90.5938 92.761L99.4475 96.9997L96.9825 93.4035Z" fill="#F69300"/>
<path d="M90.5879 92.7656C90.5296 92.8943 90.5288 93.0514 90.6154 93.1884L91.599 94.7333H91.6014L93.0481 97.0044H99.4425L90.5887 92.7656H90.5879Z" fill="url(#paint2_linear_742_52576)"/>
<path d="M87.7126 80.2172L86.1963 77.9194L85.1974 76.4062H78.9414L87.6146 80.8104C87.7846 80.6792 87.8486 80.4236 87.7134 80.2172H87.7126Z" fill="url(#paint3_linear_742_52576)"/>
<path d="M78.9414 76.4071L81.6104 80.3784C81.6217 80.3943 81.6323 80.4077 81.6436 80.4236C81.8646 80.7219 82.207 80.8982 82.5729 80.8982H87.3653C87.4632 80.8982 87.5466 80.8631 87.6154 80.8104L78.9422 76.4062L78.9414 76.4071Z" fill="#F69300"/>
<path d="M127.373 108.094H78.2159C76.7558 108.094 75.5391 109.35 75.5391 110.857C75.5391 112.364 76.7558 113.62 78.2159 113.62H127.373C128.833 113.62 130.049 112.364 130.049 110.857C130.049 109.35 128.833 108.094 127.373 108.094Z" fill="#C7E4FF"/>
<path d="M127.373 121.781H78.2159C76.7558 121.781 75.5391 123.037 75.5391 124.544C75.5391 126.051 76.7558 127.307 78.2159 127.307H127.373C128.833 127.307 130.049 126.051 130.049 124.544C130.049 122.912 128.833 121.781 127.373 121.781Z" fill="#C7E4FF"/>
<path d="M105.106 134.969H78.337C76.8769 134.969 75.6602 136.225 75.6602 137.732C75.6602 139.239 76.8769 140.495 78.337 140.495H105.106C106.566 140.495 107.782 139.239 107.782 137.732C107.661 136.099 106.566 134.969 105.106 134.969Z" fill="#C7E4FF"/>
<path d="M162.412 130.188V184.567C162.412 188.334 159.37 191.474 155.719 191.474H59.2312C55.5809 191.474 52.5391 188.334 52.5391 184.567V130.188L107.536 163.594L162.412 130.188Z" fill="#FFB031"/>
<path d="M160.586 189.468L125.179 152.922L107.414 163.722L89.6496 152.922L54.2422 189.468C55.4589 190.849 57.1624 191.603 59.1092 191.603H155.719C157.666 191.603 159.369 190.724 160.586 189.468Z" fill="#FF9433"/>
<path d="M173.476 55.4751C157.658 57.1077 145.004 70.5455 143.909 86.8719C143.3 95.035 145.612 102.57 149.749 108.724C151.331 110.985 151.574 113.999 150.479 116.636L147.924 123.167L158.632 120.278C160.335 119.776 162.16 119.901 163.864 120.655C168.852 122.915 174.328 123.92 180.29 123.292C195.864 121.785 208.397 108.85 209.857 92.7745C211.804 71.2991 194.404 53.4657 173.476 55.4751Z" fill="#0052FE"/>
<path d="M177.734 106.713L179.56 104.829C179.56 104.829 178.1 101.313 184.183 95.4101C187.834 91.8937 188.564 88.5028 188.32 85.7399C187.834 81.3444 184.305 77.7024 180.046 77.2C177.369 76.9488 174.084 77.7024 170.677 81.47C164.959 87.7493 161.552 86.2423 161.552 86.2423L159.727 88.1261L177.734 106.713Z" fill="white"/>
<path d="M163.74 95.1641C162.28 97.1735 162.523 100.062 164.227 101.82C165.93 103.578 168.729 103.83 170.675 102.323L163.74 95.1641Z" fill="white"/>
<path d="M189.538 79.3403L188.443 80.4706C187.591 79.0891 186.374 77.8332 184.914 76.9541L186.009 75.8238C186.983 74.8191 188.564 74.8191 189.538 75.8238C190.389 76.8285 190.389 78.3356 189.538 79.3403Z" fill="white"/>
<path d="M176.034 55.3466C187.837 58.9886 196.354 70.1659 196.354 83.6037C196.354 99.93 183.578 113.117 167.76 113.117C159.486 113.117 152.064 109.475 146.832 103.572C147.684 105.456 148.657 107.214 149.752 108.847C151.334 111.107 151.577 114.121 150.482 116.759L147.927 123.289L158.635 120.401C160.338 119.898 162.163 120.024 163.867 120.777C168.855 123.038 174.331 124.043 180.293 123.415C195.867 121.908 208.4 108.972 209.86 92.8971C211.685 72.1753 195.745 54.8442 176.034 55.3466Z" fill="#0141CF"/>
<path d="M3.98481 27.0871L11.1636 44.1669C11.5287 45.046 11.1636 46.0507 10.3119 46.4275L10.0686 46.5531C9.21684 46.9298 8.24344 46.5531 7.87841 45.674L0.942934 28.4685C0.577909 27.5894 1.06461 26.5847 1.91633 26.208C2.76806 25.8312 3.74146 26.208 3.98481 27.0871Z" fill="#FFB031"/>
<defs>
<linearGradient id="paint0_linear_742_52576" x1="94.4201" y1="81.9326" x2="86.2443" y2="91.0965" gradientUnits="userSpaceOnUse">
<stop stop-color="#FFAC00"/>
<stop offset="1" stop-color="#FE7801"/>
</linearGradient>
<linearGradient id="paint1_linear_742_52576" x1="78.6328" y1="86.7035" x2="98.9947" y2="86.7035" gradientUnits="userSpaceOnUse">
<stop stop-color="#FFCE00"/>
<stop offset="1" stop-color="#FFB003"/>
</linearGradient>
<linearGradient id="paint2_linear_742_52576" x1="90.5466" y1="94.8854" x2="99.4416" y2="94.8854" gradientUnits="userSpaceOnUse">
<stop stop-color="#FE8B01"/>
<stop offset="1" stop-color="#FE7801"/>
</linearGradient>
<linearGradient id="paint3_linear_742_52576" x1="78.9406" y1="78.6079" x2="87.7862" y2="78.6079" gradientUnits="userSpaceOnUse">
<stop stop-color="#FFCE00"/>
<stop offset="1" stop-color="#FFC101"/>
</linearGradient>
</defs>
</svg>
