<svg width="24" height="25" viewBox="0 0 24 25" fill="none" xmlns="http://www.w3.org/2000/svg">
<path d="M21.7523 6.1888C21.0352 6.49818 20.2547 6.72084 19.4508 6.80755C20.2854 6.3117 20.9104 5.52833 21.2086 4.60443C20.4254 5.07034 19.5674 5.39705 18.6727 5.57005C18.2987 5.17027 17.8464 4.85179 17.344 4.63445C16.8416 4.4171 16.2998 4.30556 15.7523 4.30677C13.5375 4.30677 11.7563 6.10208 11.7563 8.30521C11.7563 8.61458 11.7938 8.92396 11.8547 9.22162C8.53828 9.04818 5.58047 7.4638 3.61406 5.03802C3.25576 5.65001 3.068 6.34683 3.07031 7.05599C3.07031 8.44349 3.77578 9.66693 4.85156 10.3865C4.21759 10.3615 3.59846 10.1872 3.04453 9.87787V9.92708C3.04453 11.8701 4.41797 13.4802 6.24844 13.8505C5.90475 13.9398 5.55119 13.9855 5.19609 13.9865C4.93594 13.9865 4.68984 13.9607 4.44141 13.9255C4.94766 15.5099 6.42188 16.6607 8.17734 16.6982C6.80391 17.774 5.08359 18.4068 3.21563 18.4068C2.88047 18.4068 2.57109 18.3951 2.25 18.3576C4.02188 19.4943 6.12422 20.1505 8.38828 20.1505C15.7383 20.1505 19.7602 14.0615 19.7602 8.7763C19.7602 8.60287 19.7602 8.42943 19.7484 8.25599C20.5266 7.68646 21.2086 6.98099 21.7523 6.1888Z" fill="#2997F9"/>
</svg>
