<svg width="24" height="25" viewBox="0 0 24 25" fill="none" xmlns="http://www.w3.org/2000/svg">
<path d="M21.626 6.48582C21.4418 5.32538 20.3809 4.31129 19.2068 4.17676C14.4154 3.65463 9.58143 3.65479 4.79007 4.17722C3.62016 4.31129 2.55929 5.32519 2.37413 6.49004C1.79174 10.2949 1.79196 14.1663 2.37479 17.9711C2.5592 19.1316 3.62016 20.1456 4.79401 20.2799C7.18726 20.541 9.59294 20.6717 12.0004 20.6716C14.4078 20.6717 16.8135 20.541 19.2068 20.2799L19.2106 20.2795C20.3806 20.1457 21.4417 19.1317 21.6267 17.9667C22.2091 14.1619 22.2088 10.2906 21.626 6.48582ZM15.4164 12.8524L10.9164 15.8524C10.8034 15.9277 10.6721 15.9709 10.5366 15.9774C10.401 15.984 10.2662 15.9536 10.1465 15.8896C10.0268 15.8255 9.92677 15.7302 9.85701 15.6137C9.78725 15.4973 9.7504 15.3641 9.75038 15.2284V9.22838C9.75039 9.09263 9.78723 8.95942 9.857 8.84297C9.92676 8.72651 10.0268 8.63118 10.1465 8.56712C10.2662 8.50307 10.401 8.47271 10.5366 8.47927C10.6722 8.48583 10.8035 8.52907 10.9164 8.60438L15.4164 11.6044C15.5192 11.6729 15.6034 11.7657 15.6616 11.8745C15.7199 11.9834 15.7504 12.1049 15.7504 12.2284C15.7504 12.3518 15.7199 12.4734 15.6616 12.5822C15.6034 12.6911 15.5192 12.7839 15.4164 12.8524H15.4164Z" fill="#2997F9"/>
</svg>
